<mxfile host="app.diagrams.net" agent="Mozilla/5.0 (X11; Linux x86_64) AppleWebKit/537.36 (KHTML, like Gecko) Chrome/130.0.0.0 Safari/537.36 OPR/115.0.0.0" version="24.8.6">
  <diagram name="Strona-1" id="mr1jpqiAd6D3nJ4Dobpt">
    <mxGraphModel dx="1154" dy="449" grid="1" gridSize="10" guides="1" tooltips="1" connect="1" arrows="1" fold="1" page="1" pageScale="1" pageWidth="827" pageHeight="1169" math="0" shadow="0">
      <root>
        <mxCell id="0" />
        <mxCell id="1" parent="0" />
        <mxCell id="kblaAlUt2YU5-3huf7GQ-1" value="STM32H7A3" style="whiteSpace=wrap;html=1;aspect=fixed;" parent="1" vertex="1">
          <mxGeometry x="400" y="440" width="140" height="140" as="geometry" />
        </mxCell>
        <mxCell id="kblaAlUt2YU5-3huf7GQ-3" value="I2C" style="rounded=0;whiteSpace=wrap;html=1;dashed=1;" parent="1" vertex="1">
          <mxGeometry x="420" y="440" width="100" height="20" as="geometry" />
        </mxCell>
        <mxCell id="kblaAlUt2YU5-3huf7GQ-5" value="RPI ZERO 2 W" style="rounded=0;whiteSpace=wrap;html=1;" parent="1" vertex="1">
          <mxGeometry x="200" y="440" width="150" height="70" as="geometry" />
        </mxCell>
        <mxCell id="kblaAlUt2YU5-3huf7GQ-6" value="RPI CAM&lt;br&gt;V3" style="whiteSpace=wrap;html=1;aspect=fixed;" parent="1" vertex="1">
          <mxGeometry x="100" y="440" width="70" height="70" as="geometry" />
        </mxCell>
        <mxCell id="kblaAlUt2YU5-3huf7GQ-7" value="VL53L0X" style="rounded=0;whiteSpace=wrap;html=1;" parent="1" vertex="1">
          <mxGeometry x="470" y="390" width="60" height="20" as="geometry" />
        </mxCell>
        <mxCell id="kblaAlUt2YU5-3huf7GQ-11" value="BNO055" style="rounded=0;whiteSpace=wrap;html=1;" parent="1" vertex="1">
          <mxGeometry x="400" y="390" width="60" height="20" as="geometry" />
        </mxCell>
        <mxCell id="kblaAlUt2YU5-3huf7GQ-13" value="WS2812B" style="rounded=0;whiteSpace=wrap;html=1;" parent="1" vertex="1">
          <mxGeometry x="200" y="390" width="70" height="20" as="geometry" />
        </mxCell>
        <mxCell id="kblaAlUt2YU5-3huf7GQ-15" value="UART" style="rounded=0;whiteSpace=wrap;html=1;dashed=1;rotation=-90;" parent="1" vertex="1">
          <mxGeometry x="320" y="470" width="40" height="20" as="geometry" />
        </mxCell>
        <mxCell id="kblaAlUt2YU5-3huf7GQ-16" value="UART" style="rounded=0;whiteSpace=wrap;html=1;dashed=1;rotation=90;" parent="1" vertex="1">
          <mxGeometry x="390" y="480" width="40" height="20" as="geometry" />
        </mxCell>
        <mxCell id="kblaAlUt2YU5-3huf7GQ-17" value="ENCODER&lt;br&gt;pololu #3081" style="rounded=0;whiteSpace=wrap;html=1;" parent="1" vertex="1">
          <mxGeometry x="600" y="490" width="80" height="40" as="geometry" />
        </mxCell>
        <mxCell id="kblaAlUt2YU5-3huf7GQ-18" value="U3V70A&lt;br&gt;pololu #2890" style="rounded=0;whiteSpace=wrap;html=1;" parent="1" vertex="1">
          <mxGeometry x="260" y="530" width="90" height="40" as="geometry" />
        </mxCell>
        <mxCell id="kblaAlUt2YU5-3huf7GQ-19" value="ENCODER&lt;br&gt;pololu #3081" style="rounded=0;whiteSpace=wrap;html=1;" parent="1" vertex="1">
          <mxGeometry x="600" y="440" width="80" height="40" as="geometry" />
        </mxCell>
        <mxCell id="kblaAlUt2YU5-3huf7GQ-21" value="MOTOR&lt;br&gt;pololu #3075" style="rounded=0;whiteSpace=wrap;html=1;" parent="1" vertex="1">
          <mxGeometry x="680" y="440" width="100" height="40" as="geometry" />
        </mxCell>
        <mxCell id="kblaAlUt2YU5-3huf7GQ-22" value="MOTOR&lt;br&gt;pololu #3075" style="rounded=0;whiteSpace=wrap;html=1;" parent="1" vertex="1">
          <mxGeometry x="680" y="490" width="100" height="40" as="geometry" />
        </mxCell>
        <mxCell id="kblaAlUt2YU5-3huf7GQ-23" value="S7V8F3&lt;br&gt;pololu #2122" style="rounded=0;whiteSpace=wrap;html=1;" parent="1" vertex="1">
          <mxGeometry x="400" y="600" width="90" height="40" as="geometry" />
        </mxCell>
        <mxCell id="kblaAlUt2YU5-3huf7GQ-25" value="DW01&lt;br&gt;&lt;font style=&quot;font-size: 8px;&quot;&gt;BATTERY PROTECTION&lt;/font&gt;" style="rounded=0;whiteSpace=wrap;html=1;" parent="1" vertex="1">
          <mxGeometry x="280" y="600" width="95" height="70" as="geometry" />
        </mxCell>
        <mxCell id="kblaAlUt2YU5-3huf7GQ-26" value="INR18650-35E" style="rounded=1;whiteSpace=wrap;html=1;" parent="1" vertex="1">
          <mxGeometry x="140" y="600" width="120" height="30" as="geometry" />
        </mxCell>
        <mxCell id="kblaAlUt2YU5-3huf7GQ-27" value="INR18650-35E" style="rounded=1;whiteSpace=wrap;html=1;" parent="1" vertex="1">
          <mxGeometry x="140" y="640" width="120" height="30" as="geometry" />
        </mxCell>
        <mxCell id="kblaAlUt2YU5-3huf7GQ-28" value="CURRENT&lt;br&gt;SENSOR&lt;br&gt;(HALL EFFECT)" style="rounded=0;whiteSpace=wrap;html=1;" parent="1" vertex="1">
          <mxGeometry x="680" y="550" width="100" height="60" as="geometry" />
        </mxCell>
        <mxCell id="kblaAlUt2YU5-3huf7GQ-30" value="H BRIDGE&lt;br&gt;(DRV8833)" style="rounded=0;whiteSpace=wrap;html=1;" parent="1" vertex="1">
          <mxGeometry x="680" y="640" width="100" height="50" as="geometry" />
        </mxCell>
        <mxCell id="kblaAlUt2YU5-3huf7GQ-31" value="" style="endArrow=classic;startArrow=classic;html=1;rounded=0;exitX=1;exitY=0.5;exitDx=0;exitDy=0;entryX=0;entryY=0.5;entryDx=0;entryDy=0;" parent="1" source="kblaAlUt2YU5-3huf7GQ-6" target="kblaAlUt2YU5-3huf7GQ-5" edge="1">
          <mxGeometry width="50" height="50" relative="1" as="geometry">
            <mxPoint x="230" y="490" as="sourcePoint" />
            <mxPoint x="280" y="440" as="targetPoint" />
          </mxGeometry>
        </mxCell>
        <mxCell id="kblaAlUt2YU5-3huf7GQ-32" value="" style="endArrow=classic;html=1;rounded=0;exitX=0.25;exitY=0;exitDx=0;exitDy=0;entryX=0.5;entryY=1;entryDx=0;entryDy=0;" parent="1" source="kblaAlUt2YU5-3huf7GQ-5" target="kblaAlUt2YU5-3huf7GQ-13" edge="1">
          <mxGeometry width="50" height="50" relative="1" as="geometry">
            <mxPoint x="270" y="470" as="sourcePoint" />
            <mxPoint x="320" y="420" as="targetPoint" />
          </mxGeometry>
        </mxCell>
        <mxCell id="kblaAlUt2YU5-3huf7GQ-36" value="" style="endArrow=classic;startArrow=classic;html=1;rounded=0;exitX=0.75;exitY=0;exitDx=0;exitDy=0;entryX=0.25;entryY=1;entryDx=0;entryDy=0;" parent="1" source="kblaAlUt2YU5-3huf7GQ-3" target="kblaAlUt2YU5-3huf7GQ-7" edge="1">
          <mxGeometry width="50" height="50" relative="1" as="geometry">
            <mxPoint x="480" y="430" as="sourcePoint" />
            <mxPoint x="480" y="380" as="targetPoint" />
          </mxGeometry>
        </mxCell>
        <mxCell id="kblaAlUt2YU5-3huf7GQ-37" value="" style="endArrow=classic;html=1;rounded=0;exitX=0.75;exitY=0;exitDx=0;exitDy=0;entryX=0.75;entryY=1;entryDx=0;entryDy=0;" parent="1" source="kblaAlUt2YU5-3huf7GQ-1" target="kblaAlUt2YU5-3huf7GQ-7" edge="1">
          <mxGeometry width="50" height="50" relative="1" as="geometry">
            <mxPoint x="440" y="440" as="sourcePoint" />
            <mxPoint x="490" y="390" as="targetPoint" />
          </mxGeometry>
        </mxCell>
        <mxCell id="kblaAlUt2YU5-3huf7GQ-38" value="" style="endArrow=classic;startArrow=classic;html=1;rounded=0;exitX=0.324;exitY=1.007;exitDx=0;exitDy=0;entryX=0.25;entryY=0;entryDx=0;entryDy=0;exitPerimeter=0;" parent="1" source="kblaAlUt2YU5-3huf7GQ-11" edge="1">
          <mxGeometry width="50" height="50" relative="1" as="geometry">
            <mxPoint x="380" y="440" as="sourcePoint" />
            <mxPoint x="430" y="440" as="targetPoint" />
          </mxGeometry>
        </mxCell>
        <mxCell id="kblaAlUt2YU5-3huf7GQ-39" value="" style="endArrow=classic;html=1;rounded=0;entryX=0.75;entryY=1;entryDx=0;entryDy=0;edgeStyle=orthogonalEdgeStyle;exitX=0.25;exitY=0;exitDx=0;exitDy=0;" parent="1" source="kblaAlUt2YU5-3huf7GQ-3" target="kblaAlUt2YU5-3huf7GQ-11" edge="1">
          <mxGeometry width="50" height="50" relative="1" as="geometry">
            <mxPoint x="450" y="430" as="sourcePoint" />
            <mxPoint x="410" y="380" as="targetPoint" />
          </mxGeometry>
        </mxCell>
        <mxCell id="kblaAlUt2YU5-3huf7GQ-40" value="" style="endArrow=classic;html=1;rounded=0;exitX=0.25;exitY=1;exitDx=0;exitDy=0;entryX=0.75;entryY=1;entryDx=0;entryDy=0;" parent="1" source="kblaAlUt2YU5-3huf7GQ-16" target="kblaAlUt2YU5-3huf7GQ-15" edge="1">
          <mxGeometry width="50" height="50" relative="1" as="geometry">
            <mxPoint x="430" y="510" as="sourcePoint" />
            <mxPoint x="480" y="460" as="targetPoint" />
          </mxGeometry>
        </mxCell>
        <mxCell id="kblaAlUt2YU5-3huf7GQ-41" value="" style="endArrow=classic;html=1;rounded=0;exitX=0.25;exitY=1;exitDx=0;exitDy=0;entryX=0.75;entryY=1;entryDx=0;entryDy=0;" parent="1" source="kblaAlUt2YU5-3huf7GQ-15" target="kblaAlUt2YU5-3huf7GQ-16" edge="1">
          <mxGeometry width="50" height="50" relative="1" as="geometry">
            <mxPoint x="390" y="520" as="sourcePoint" />
            <mxPoint x="440" y="470" as="targetPoint" />
          </mxGeometry>
        </mxCell>
        <mxCell id="kblaAlUt2YU5-3huf7GQ-42" value="" style="endArrow=classic;html=1;rounded=0;exitX=0;exitY=0.25;exitDx=0;exitDy=0;entryX=1.003;entryY=0.072;entryDx=0;entryDy=0;entryPerimeter=0;" parent="1" source="kblaAlUt2YU5-3huf7GQ-19" target="kblaAlUt2YU5-3huf7GQ-1" edge="1">
          <mxGeometry width="50" height="50" relative="1" as="geometry">
            <mxPoint x="620" y="415" as="sourcePoint" />
            <mxPoint x="560" y="460" as="targetPoint" />
          </mxGeometry>
        </mxCell>
        <mxCell id="kblaAlUt2YU5-3huf7GQ-43" value="" style="endArrow=classic;html=1;rounded=0;exitX=0;exitY=0.25;exitDx=0;exitDy=0;entryX=1.003;entryY=0.072;entryDx=0;entryDy=0;entryPerimeter=0;" parent="1" edge="1">
          <mxGeometry width="50" height="50" relative="1" as="geometry">
            <mxPoint x="600" y="460" as="sourcePoint" />
            <mxPoint x="540" y="460" as="targetPoint" />
          </mxGeometry>
        </mxCell>
        <mxCell id="kblaAlUt2YU5-3huf7GQ-44" value="" style="endArrow=classic;html=1;rounded=0;exitX=0;exitY=0.25;exitDx=0;exitDy=0;entryX=1.003;entryY=0.072;entryDx=0;entryDy=0;entryPerimeter=0;" parent="1" edge="1">
          <mxGeometry width="50" height="50" relative="1" as="geometry">
            <mxPoint x="600" y="500" as="sourcePoint" />
            <mxPoint x="540" y="500" as="targetPoint" />
          </mxGeometry>
        </mxCell>
        <mxCell id="kblaAlUt2YU5-3huf7GQ-45" value="" style="endArrow=classic;html=1;rounded=0;exitX=0;exitY=0.25;exitDx=0;exitDy=0;entryX=1.003;entryY=0.072;entryDx=0;entryDy=0;entryPerimeter=0;" parent="1" edge="1">
          <mxGeometry width="50" height="50" relative="1" as="geometry">
            <mxPoint x="600" y="509.84" as="sourcePoint" />
            <mxPoint x="540" y="509.84" as="targetPoint" />
          </mxGeometry>
        </mxCell>
        <mxCell id="kblaAlUt2YU5-3huf7GQ-46" value="" style="endArrow=classic;html=1;rounded=0;exitX=1;exitY=0.5;exitDx=0;exitDy=0;" parent="1" source="kblaAlUt2YU5-3huf7GQ-26" target="kblaAlUt2YU5-3huf7GQ-25" edge="1">
          <mxGeometry width="50" height="50" relative="1" as="geometry">
            <mxPoint x="355" y="610" as="sourcePoint" />
            <mxPoint x="405" y="560" as="targetPoint" />
          </mxGeometry>
        </mxCell>
        <mxCell id="kblaAlUt2YU5-3huf7GQ-48" value="" style="endArrow=classic;html=1;rounded=0;exitX=1;exitY=0.5;exitDx=0;exitDy=0;entryX=0;entryY=0.75;entryDx=0;entryDy=0;" parent="1" source="kblaAlUt2YU5-3huf7GQ-27" target="kblaAlUt2YU5-3huf7GQ-25" edge="1">
          <mxGeometry width="50" height="50" relative="1" as="geometry">
            <mxPoint x="405" y="640" as="sourcePoint" />
            <mxPoint x="455" y="590" as="targetPoint" />
          </mxGeometry>
        </mxCell>
        <mxCell id="kblaAlUt2YU5-3huf7GQ-51" value="" style="endArrow=classic;html=1;rounded=0;exitX=0.5;exitY=0;exitDx=0;exitDy=0;entryX=0.25;entryY=1;entryDx=0;entryDy=0;" parent="1" source="kblaAlUt2YU5-3huf7GQ-23" target="kblaAlUt2YU5-3huf7GQ-1" edge="1">
          <mxGeometry width="50" height="50" relative="1" as="geometry">
            <mxPoint x="440" y="620" as="sourcePoint" />
            <mxPoint x="490" y="570" as="targetPoint" />
          </mxGeometry>
        </mxCell>
        <mxCell id="kblaAlUt2YU5-3huf7GQ-52" value="" style="endArrow=classic;html=1;rounded=0;exitX=0.5;exitY=0;exitDx=0;exitDy=0;entryX=0.75;entryY=1;entryDx=0;entryDy=0;" parent="1" source="kblaAlUt2YU5-3huf7GQ-18" target="kblaAlUt2YU5-3huf7GQ-5" edge="1">
          <mxGeometry width="50" height="50" relative="1" as="geometry">
            <mxPoint x="290" y="560" as="sourcePoint" />
            <mxPoint x="340" y="510" as="targetPoint" />
          </mxGeometry>
        </mxCell>
        <mxCell id="kblaAlUt2YU5-3huf7GQ-59" value="" style="endArrow=classic;html=1;rounded=0;exitX=1;exitY=0.75;exitDx=0;exitDy=0;entryX=1;entryY=0.25;entryDx=0;entryDy=0;" parent="1" source="kblaAlUt2YU5-3huf7GQ-28" target="kblaAlUt2YU5-3huf7GQ-21" edge="1">
          <mxGeometry width="50" height="50" relative="1" as="geometry">
            <mxPoint x="790" y="590" as="sourcePoint" />
            <mxPoint x="810" y="450" as="targetPoint" />
            <Array as="points">
              <mxPoint x="800" y="595" />
              <mxPoint x="800" y="450" />
            </Array>
          </mxGeometry>
        </mxCell>
        <mxCell id="kblaAlUt2YU5-3huf7GQ-60" value="" style="endArrow=classic;html=1;rounded=0;exitX=1;exitY=0.25;exitDx=0;exitDy=0;entryX=1;entryY=0.25;entryDx=0;entryDy=0;edgeStyle=orthogonalEdgeStyle;" parent="1" source="kblaAlUt2YU5-3huf7GQ-28" target="kblaAlUt2YU5-3huf7GQ-22" edge="1">
          <mxGeometry width="50" height="50" relative="1" as="geometry">
            <mxPoint x="780" y="570" as="sourcePoint" />
            <mxPoint x="830" y="520" as="targetPoint" />
          </mxGeometry>
        </mxCell>
        <mxCell id="kblaAlUt2YU5-3huf7GQ-61" value="" style="endArrow=classic;startArrow=classic;html=1;rounded=0;entryX=0.25;entryY=1;entryDx=0;entryDy=0;exitX=0.25;exitY=0;exitDx=0;exitDy=0;" parent="1" source="kblaAlUt2YU5-3huf7GQ-30" target="kblaAlUt2YU5-3huf7GQ-28" edge="1">
          <mxGeometry width="50" height="50" relative="1" as="geometry">
            <mxPoint x="650" y="660" as="sourcePoint" />
            <mxPoint x="700" y="610" as="targetPoint" />
          </mxGeometry>
        </mxCell>
        <mxCell id="kblaAlUt2YU5-3huf7GQ-62" value="" style="endArrow=classic;startArrow=classic;html=1;rounded=0;entryX=0.75;entryY=1;entryDx=0;entryDy=0;exitX=0.75;exitY=0;exitDx=0;exitDy=0;" parent="1" source="kblaAlUt2YU5-3huf7GQ-30" target="kblaAlUt2YU5-3huf7GQ-28" edge="1">
          <mxGeometry width="50" height="50" relative="1" as="geometry">
            <mxPoint x="800" y="650" as="sourcePoint" />
            <mxPoint x="800" y="620" as="targetPoint" />
          </mxGeometry>
        </mxCell>
        <mxCell id="kblaAlUt2YU5-3huf7GQ-70" value="" style="endArrow=classic;html=1;rounded=0;exitX=0.931;exitY=1.004;exitDx=0;exitDy=0;exitPerimeter=0;entryX=0;entryY=0.25;entryDx=0;entryDy=0;edgeStyle=orthogonalEdgeStyle;" parent="1" source="kblaAlUt2YU5-3huf7GQ-1" target="kblaAlUt2YU5-3huf7GQ-30" edge="1">
          <mxGeometry width="50" height="50" relative="1" as="geometry">
            <mxPoint x="540" y="650" as="sourcePoint" />
            <mxPoint x="590" y="600" as="targetPoint" />
          </mxGeometry>
        </mxCell>
        <mxCell id="kblaAlUt2YU5-3huf7GQ-71" value="" style="endArrow=classic;html=1;rounded=0;exitX=0.857;exitY=1.004;exitDx=0;exitDy=0;exitPerimeter=0;entryX=0;entryY=0.5;entryDx=0;entryDy=0;edgeStyle=orthogonalEdgeStyle;" parent="1" source="kblaAlUt2YU5-3huf7GQ-1" target="kblaAlUt2YU5-3huf7GQ-30" edge="1">
          <mxGeometry width="50" height="50" relative="1" as="geometry">
            <mxPoint x="600" y="630" as="sourcePoint" />
            <mxPoint x="650" y="580" as="targetPoint" />
          </mxGeometry>
        </mxCell>
        <mxCell id="kblaAlUt2YU5-3huf7GQ-72" value="" style="endArrow=classic;html=1;rounded=0;exitX=0.791;exitY=1.01;exitDx=0;exitDy=0;exitPerimeter=0;entryX=0;entryY=0.75;entryDx=0;entryDy=0;edgeStyle=orthogonalEdgeStyle;" parent="1" source="kblaAlUt2YU5-3huf7GQ-1" target="kblaAlUt2YU5-3huf7GQ-30" edge="1">
          <mxGeometry width="50" height="50" relative="1" as="geometry">
            <mxPoint x="590" y="620" as="sourcePoint" />
            <mxPoint x="640" y="570" as="targetPoint" />
            <Array as="points">
              <mxPoint x="511" y="678" />
              <mxPoint x="610" y="678" />
            </Array>
          </mxGeometry>
        </mxCell>
        <mxCell id="kblaAlUt2YU5-3huf7GQ-73" value="" style="endArrow=classic;html=1;rounded=0;exitX=0;exitY=0;exitDx=0;exitDy=0;entryX=1;entryY=1;entryDx=0;entryDy=0;edgeStyle=orthogonalEdgeStyle;" parent="1" source="kblaAlUt2YU5-3huf7GQ-30" target="kblaAlUt2YU5-3huf7GQ-1" edge="1">
          <mxGeometry width="50" height="50" relative="1" as="geometry">
            <mxPoint x="570" y="580" as="sourcePoint" />
            <mxPoint x="620" y="530" as="targetPoint" />
            <Array as="points">
              <mxPoint x="540" y="640" />
            </Array>
          </mxGeometry>
        </mxCell>
        <mxCell id="kblaAlUt2YU5-3huf7GQ-76" value="" style="endArrow=classic;html=1;rounded=0;exitX=0;exitY=0.75;exitDx=0;exitDy=0;entryX=1.003;entryY=0.859;entryDx=0;entryDy=0;entryPerimeter=0;edgeStyle=orthogonalEdgeStyle;" parent="1" source="kblaAlUt2YU5-3huf7GQ-28" target="kblaAlUt2YU5-3huf7GQ-1" edge="1">
          <mxGeometry width="50" height="50" relative="1" as="geometry">
            <mxPoint x="580" y="620" as="sourcePoint" />
            <mxPoint x="630" y="570" as="targetPoint" />
          </mxGeometry>
        </mxCell>
        <mxCell id="kblaAlUt2YU5-3huf7GQ-77" value="" style="endArrow=classic;html=1;rounded=0;exitX=0;exitY=0.5;exitDx=0;exitDy=0;entryX=1.002;entryY=0.79;entryDx=0;entryDy=0;entryPerimeter=0;edgeStyle=orthogonalEdgeStyle;" parent="1" source="kblaAlUt2YU5-3huf7GQ-28" target="kblaAlUt2YU5-3huf7GQ-1" edge="1">
          <mxGeometry width="50" height="50" relative="1" as="geometry">
            <mxPoint x="620" y="590" as="sourcePoint" />
            <mxPoint x="670" y="540" as="targetPoint" />
            <Array as="points">
              <mxPoint x="620" y="580" />
              <mxPoint x="620" y="551" />
            </Array>
          </mxGeometry>
        </mxCell>
        <mxCell id="kblaAlUt2YU5-3huf7GQ-78" value="" style="endArrow=classic;html=1;rounded=0;exitX=1;exitY=0.5;exitDx=0;exitDy=0;edgeStyle=orthogonalEdgeStyle;entryX=1;entryY=0.5;entryDx=0;entryDy=0;" parent="1" edge="1">
          <mxGeometry width="50" height="50" relative="1" as="geometry">
            <mxPoint x="350" y="554.97" as="sourcePoint" />
            <mxPoint x="780" y="669.97" as="targetPoint" />
            <Array as="points">
              <mxPoint x="380" y="555" />
              <mxPoint x="380" y="370" />
              <mxPoint x="810" y="370" />
              <mxPoint x="810" y="670" />
            </Array>
          </mxGeometry>
        </mxCell>
        <mxCell id="QP9ESfs3dciiiOCJcSy7-1" value="TP5100&lt;br&gt;&lt;font style=&quot;font-size: 8px;&quot;&gt;BATTERY CHARGER&lt;/font&gt;" style="whiteSpace=wrap;html=1;aspect=fixed;" parent="1" vertex="1">
          <mxGeometry x="50" y="600" width="70" height="70" as="geometry" />
        </mxCell>
        <mxCell id="QP9ESfs3dciiiOCJcSy7-2" value="" style="endArrow=classic;html=1;rounded=0;exitX=0.5;exitY=0;exitDx=0;exitDy=0;entryX=0.5;entryY=1;entryDx=0;entryDy=0;" parent="1" source="kblaAlUt2YU5-3huf7GQ-25" target="kblaAlUt2YU5-3huf7GQ-18" edge="1">
          <mxGeometry width="50" height="50" relative="1" as="geometry">
            <mxPoint x="370" y="640" as="sourcePoint" />
            <mxPoint x="420" y="590" as="targetPoint" />
          </mxGeometry>
        </mxCell>
        <mxCell id="QP9ESfs3dciiiOCJcSy7-4" value="" style="endArrow=classic;html=1;rounded=0;exitX=1;exitY=0.5;exitDx=0;exitDy=0;entryX=0;entryY=0.5;entryDx=0;entryDy=0;" parent="1" source="kblaAlUt2YU5-3huf7GQ-25" target="kblaAlUt2YU5-3huf7GQ-23" edge="1">
          <mxGeometry width="50" height="50" relative="1" as="geometry">
            <mxPoint x="360" y="660" as="sourcePoint" />
            <mxPoint x="420" y="590" as="targetPoint" />
          </mxGeometry>
        </mxCell>
        <mxCell id="QP9ESfs3dciiiOCJcSy7-5" value="" style="endArrow=classic;html=1;rounded=0;exitX=1;exitY=0.25;exitDx=0;exitDy=0;entryX=0;entryY=0.5;entryDx=0;entryDy=0;" parent="1" source="QP9ESfs3dciiiOCJcSy7-1" target="kblaAlUt2YU5-3huf7GQ-26" edge="1">
          <mxGeometry width="50" height="50" relative="1" as="geometry">
            <mxPoint x="280" y="630" as="sourcePoint" />
            <mxPoint x="330" y="580" as="targetPoint" />
          </mxGeometry>
        </mxCell>
        <mxCell id="QP9ESfs3dciiiOCJcSy7-6" value="" style="endArrow=classic;html=1;rounded=0;exitX=1;exitY=0.75;exitDx=0;exitDy=0;entryX=0;entryY=0.5;entryDx=0;entryDy=0;" parent="1" source="QP9ESfs3dciiiOCJcSy7-1" target="kblaAlUt2YU5-3huf7GQ-27" edge="1">
          <mxGeometry width="50" height="50" relative="1" as="geometry">
            <mxPoint x="90" y="720" as="sourcePoint" />
            <mxPoint x="140" y="670" as="targetPoint" />
          </mxGeometry>
        </mxCell>
        <mxCell id="QP9ESfs3dciiiOCJcSy7-7" value="CHARGING PADS" style="rounded=0;whiteSpace=wrap;html=1;" parent="1" vertex="1">
          <mxGeometry x="50" y="530" width="70" height="50" as="geometry" />
        </mxCell>
        <mxCell id="QP9ESfs3dciiiOCJcSy7-8" value="" style="endArrow=classic;html=1;rounded=0;exitX=0.5;exitY=1;exitDx=0;exitDy=0;entryX=0.5;entryY=0;entryDx=0;entryDy=0;" parent="1" source="QP9ESfs3dciiiOCJcSy7-7" target="QP9ESfs3dciiiOCJcSy7-1" edge="1">
          <mxGeometry width="50" height="50" relative="1" as="geometry">
            <mxPoint x="290" y="630" as="sourcePoint" />
            <mxPoint x="340" y="580" as="targetPoint" />
          </mxGeometry>
        </mxCell>
        <mxCell id="QP9ESfs3dciiiOCJcSy7-9" value="" style="endArrow=classic;html=1;rounded=0;exitX=1;exitY=0.75;exitDx=0;exitDy=0;entryX=-0.001;entryY=0.938;entryDx=0;entryDy=0;entryPerimeter=0;edgeStyle=orthogonalEdgeStyle;" parent="1" source="QP9ESfs3dciiiOCJcSy7-7" target="kblaAlUt2YU5-3huf7GQ-1" edge="1">
          <mxGeometry width="50" height="50" relative="1" as="geometry">
            <mxPoint x="370" y="580" as="sourcePoint" />
            <mxPoint x="420" y="530" as="targetPoint" />
            <Array as="points">
              <mxPoint x="130" y="573" />
              <mxPoint x="130" y="590" />
              <mxPoint x="380" y="590" />
              <mxPoint x="380" y="571" />
            </Array>
          </mxGeometry>
        </mxCell>
      </root>
    </mxGraphModel>
  </diagram>
</mxfile>
